<?xml version="1.0" encoding="UTF-8"?>
<svg fill="#6A8777" width="100pt" height="100pt" version="1.1" viewBox="0 0 100 100" xmlns="http://www.w3.org/2000/svg">
 <path d="m49.969 8.5c-2.8008 0.25781-5.8438 0.53125-7.8438 1.7188-6.0547 3.3086-12.25 6.4219-18.156 9.9688-4.9688 5.8008-7.625 14.785-9.4062 21.688-0.89062 3.5-1.5234 6.7227-1.9375 9.125-0.27734 1.4805-0.52734 3.2422-0.625 4.5 0.32812 8.0234 0.66406 16.066 1 24.094 0.046875 1.0156 0.98438 1.9062 2 1.9062h9c1.0469 0 2-0.95312 2-2v-23.812c0.25-1.1133 0.67578-2.2188 1.0312-3.2188 0.023438 11.223 0.085938 21.887 0 31.938 0.31641 2.9023 2.4023 4.5 4.9375 5 3.6602 0.69141 7.4023 1.4258 11.031 2.0938 2.4453-0.41016 4.2148-1.4648 4.9062-3.5625 0.73438-2.7266 1.4102-5.5938 2.0938-8.375l2.0625 8.375c1.1016 1.9102 2.9805 3.4883 4.9375 3.5625 3.6641-0.66797 7.4062-1.3945 11.094-2.0938 2.6172-0.55469 4.8867-2.4414 4.9375-5-0.011719-10.562-0.007812-21.141 0-31.719 0.39062 0.98047 0.73047 2.0664 0.96875 3v23.812c0 1.0469 0.95312 2 2 2h9c1.0156 0 1.9531-0.89062 2-1.9062 0.30859-8.0312 0.70703-16.07 1-24.094-0.085938-1.5352-0.37891-3.0781-0.625-4.5-0.41406-2.4023-1.0469-5.625-1.9375-9.125-2.4375-6.8867-3.4375-15.887-9.4062-21.688-5.9375-3.4727-12.004-6.75-18.094-9.9375-2.6055-1.2969-5.5469-1.7383-7.9688-1.75zm0 4c2.0352 0.21875 4.4219 0.25781 6.1562 1.3125-2.0625 7.8828-4.0898 15.816-6.125 23.719-2.1094-7.8828-3.9688-15.867-6.125-23.719 2.0039-0.73828 4.1719-1.2812 6.0938-1.3125zm-9.7188 3.25l5.8125 22.5-5.6562-6.125 1.375-2.75c0.34375-0.66797 0.26562-1.5273-0.1875-2.125l-6.6875-8.625c2.293-1.2578 3.6484-1.9727 5.3438-2.875zm19.5 0c1.7031 0.91016 3.0508 1.6562 5.3438 2.9062l-6.6875 8.5938c-0.45312 0.59766-0.53125 1.457-0.1875 2.125l1.375 2.75-5.6562 6.125zm8.9375 4.8438c1.4883 0.82812 2.9141 1.6523 4.0938 2.3438l-3.7188 18.406c-0.13672 14.703-0.046875 30.32-0.03125 43.062-0.22266 0.73438-1.0625 0.88281-1.6875 1.0938l-10.406 1.9688c-0.40625-0.10156-0.65234-0.31641-1-0.5l-3.9375-16v-24.688l11.469-12.438c0.54297-0.59375 0.67578-1.5312 0.3125-2.25l-1.4375-2.8438c2.1094-2.7148 4.2461-5.4453 6.3438-8.1562zm-37.344 0.03125c2.0859 2.7109 4.207 5.4219 6.3125 8.125l-1.4375 2.8438c-0.36328 0.71875-0.23047 1.6562 0.3125 2.25l11.469 12.406v24.719l-3.9375 16c-0.23438 0.28125-0.72266 0.39453-1 0.5l-10.344-1.9688c-0.84375-0.085938-1.3242-0.58594-1.6875-1.0625-0.37891-14.812-0.03125-29.449-0.03125-43.094l-3.75-18.406c1.4336-0.83594 2.875-1.6328 4.0938-2.3125zm-7.2188 6.875l2.9062 14.469c-1.6211 3.8242-3.3359 7.7031-4.4375 11.031-0.34375 0.85547-0.50391 1.8672-0.59375 2.5625v21.938h-5.0938l-0.90625-22v-0.03125-0.0625c0.15234-1.125 0.37891-2.6719 0.5625-3.75 0.39844-2.3164 1.0156-5.4062 1.875-8.7812 1.6836-5.3789 3.3086-10.953 5.6875-15.375zm51.781 0.03125c2.4336 4.457 4.3516 10.219 5.6562 15.344 0.85938 3.375 1.4766 6.4648 1.875 8.7812 0.20312 1.0938 0.46875 3.0508 0.5625 3.75-0.29297 7.2617-0.60547 14.75-0.90625 22.094h-5.0938v-21.938c-0.023438-0.92578-0.34375-1.7656-0.59375-2.5625-1.2812-3.6836-2.7227-7.4336-4.375-10.875 0.89844-4.8555 1.9062-9.7383 2.875-14.594zm-18.906 14.969v4h9v-4z"/>
</svg>
