<?xml version="1.0" encoding="UTF-8"?>
<svg fill="#6A8777" width="100pt" height="100pt" version="1.1" viewBox="0 0 100 100" xmlns="http://www.w3.org/2000/svg">
 <g>
  <path d="m50 61c-5.5 0-10-4.5-10-10s4.5-10 10-10 10 4.5 10 10-4.5 10-10 10zm0-17c-3.8008 0-7 3.1016-7 7 0 3.8008 3.1016 7 7 7 3.8008 0 7-3.1016 7-7 0-3.8008-3.1992-7-7-7z"/>
  <path d="m60.301 78.898c-1.6992 0-3.5-0.30078-5.3008-0.60156-1.6992-0.30078-3.3984-0.5-5-0.5s-3.3008 0.30078-5 0.5c-1.8008 0.30078-3.6016 0.60156-5.3008 0.60156-2 0-3.6992-0.39844-5.1016-1.1992-3.1992-1.8984-4.6016-5.3984-5.8984-8.8984-0.60156-1.6016-1.1992-3.1016-1.8984-4.3984-0.69922-1.1992-1.6992-2.3984-2.8008-3.6992-2.3008-2.6992-4.8008-5.8008-4.8008-9.6992 0-3.8984 2.6016-7 4.8008-9.6992 1.1016-1.3008 2.1016-2.5 2.8008-3.6992 0.69922-1.3008 1.3008-2.8008 1.8984-4.3984 1.3008-3.3984 2.6992-7 5.8984-8.8984 1.3984-0.80078 3.1016-1.1992 5.1016-1.1992 1.6992 0 3.5 0.30078 5.3008 0.60156 1.6992 0.30078 3.3984 0.5 5 0.5s3.3008-0.30078 5-0.5c1.8008-0.30078 3.6016-0.60156 5.3008-0.60156 2 0 3.6992 0.39844 5.1016 1.1992 3.1992 1.8984 4.6016 5.3984 5.8984 8.8984 0.60156 1.6016 1.1992 3.1016 1.8984 4.3984 0.69922 1.1992 1.6992 2.3984 2.8008 3.6992 2.3008 2.6992 4.8008 5.8008 4.8008 9.6992 0 3.8984-2.6016 7-4.8008 9.6992-1.1016 1.3008-2.1016 2.5-2.8008 3.6992-0.69922 1.3008-1.3008 2.8008-1.8984 4.3984-1.3008 3.3984-2.6992 7-5.8984 8.8008-1.4023 0.89844-3.1016 1.2969-5.1016 1.2969zm-10.301-4.0977c1.8008 0 3.6992 0.30078 5.3984 0.60156 1.6992 0.30078 3.3008 0.5 4.8008 0.5s2.6992-0.30078 3.6016-0.80078c2.3008-1.3008 3.3984-4.1992 4.6016-7.3008 0.60156-1.6992 1.3008-3.3984 2.1016-4.8984 0.80078-1.3984 2-2.8008 3.1016-4.1016 2.1016-2.6016 4.1016-5 4.1016-7.8008s-2-5.1992-4.1016-7.8008c-1.1016-1.3008-2.1992-2.6992-3.1016-4.1016-0.89844-1.5-1.5-3.1992-2.1016-4.8984-1.1992-3.1016-2.3008-6-4.6016-7.3008-1-0.60156-2.1016-0.80078-3.6016-0.80078s-3.1016 0.30078-4.8008 0.5c-1.8008 0.30078-3.6016 0.60156-5.3984 0.60156-1.8008 0-3.6992-0.30078-5.3984-0.60156-1.6992-0.30078-3.3008-0.5-4.8008-0.5s-2.6992 0.30078-3.6016 0.80078c-2.3008 1.3008-3.3984 4.1992-4.6016 7.3008-0.60156 1.6992-1.3008 3.3984-2.1016 4.8984-0.80078 1.3984-2 2.8008-3.1016 4.1016-2.1016 2.6016-4.1016 5-4.1016 7.8008s2 5.1992 4.1016 7.8008c1.1016 1.3008 2.1992 2.6992 3.1016 4.1016 0.89844 1.5 1.5 3.1992 2.1016 4.8984 1.1992 3.1016 2.3008 6 4.6016 7.3008 1 0.60156 2.1016 0.80078 3.6016 0.80078s3.1016-0.30078 4.8008-0.5c1.6992-0.30078 3.5977-0.60156 5.3984-0.60156z"/>
  <path d="m50 89.699c-21.301 0-38.699-17.398-38.699-38.699s17.398-38.699 38.699-38.699c10.301 0 20 4 27.301 11.301 0.60156 0.60156 0.60156 1.5 0.10156 2.1016-1.3008 1.3984-2 3.1992-2 5.1016 0 4.1992 3.3984 7.6016 7.6016 7.6016 0.60156 0 1.3008-0.10156 2-0.30078 0.80078-0.19922 1.6016 0.19922 1.8008 1 1.3008 3.8984 1.8984 7.8984 1.8984 11.898-0.003906 21.297-17.402 38.695-38.703 38.695zm0-74.398c-19.699 0-35.699 16-35.699 35.699s16 35.699 35.699 35.699 35.699-16 35.699-35.699c0-3.3008-0.5-6.6016-1.3984-9.6992-0.39844 0.10156-0.89844 0.10156-1.3008 0.10156-5.8008 0-10.602-4.8008-10.602-10.602 0-2.1016 0.60156-4.1992 1.8008-5.8984-6.5977-6.2031-15.098-9.6016-24.199-9.6016z"/>
 </g>
</svg>
