<?xml version="1.0" encoding="UTF-8"?>
<svg fill="#6A8777" width="100pt" height="100pt" version="1.1" viewBox="0 0 100 100" xmlns="http://www.w3.org/2000/svg">
 <path d="m31.602 59.699c-3.3984 0-6.1016 2.8008-6.1016 6.1016s2.8008 6.1016 6.1016 6.1016c3.3008 0 6.1016-2.8008 6.1016-6.1016-0.003906-3.3008-2.7031-6.1016-6.1016-6.1016zm0 8.3008c-1.1992 0-2.1016-1-2.1016-2.1016 0-1.1992 1-2.1016 2.1016-2.1016 1.1016 0 2.1016 1 2.1016 2.1016-0.003906 1.2031-1.0039 2.1016-2.1016 2.1016zm36.797-8.3008c-3.3984 0-6.1016 2.8008-6.1016 6.1016 0.003906 3.3008 2.7031 6.1992 6.1016 6.1992 3.3984 0 6.1016-2.8008 6.1016-6.1016 0-3.2969-2.6992-6.1992-6.1016-6.1992zm0 8.3008c-1.1992 0-2.1016-1-2.1016-2.1016 0-1.1992 1-2.1016 2.1016-2.1016 1.1016 0 2.1016 1 2.1016 2.1016 0.10156 1.2031-0.89844 2.1016-2.1016 2.1016zm-10.098-21.602c0-1.1016 0.89844-2 2-2 5.6992 0 10.301-4.6016 10.301-10.301 0-1.1016 0.89844-2 2-2 1.1016 0 2 0.89844 2 2 0 7.8984-6.3984 14.301-14.301 14.301-1.1016 0-2-0.89844-2-2zm34.301-23.398l-7.8008-3.1016c-0.30078-6.3008-5.6016-11.398-12-11.398h-45.602c-6.3984 0-11.602 5.1016-12 11.398l-7.8008 3.1016c-1.3984 0.30078-2.3984 1.5-2.3984 2.8984v9.1992c0 1.6992 1.3008 3 3 3s3-1.3008 3-3v-9.1992-0.10156l4.1992-1.6992v45.102c0 3.3984 1.3984 6.3984 3.6992 8.6016v4.3984c0 6.6992 5.5 12.199 12.199 12.199h1c6.6992 0 12.199-5.5 12.199-12.199v-1h11.398v1c0 6.6992 5.5 12.199 12.199 12.199h1c6.6992 0 12.199-5.5 12.199-12.199v-4.3984c2.3008-2.1992 3.6992-5.1992 3.6992-8.6016l0.007812-45 4.1992 1.6992v0.10156 9.1992c0 1.6992 1.3008 3 3 3s3-1.3008 3-3v-9.1992c0-1.5-1-2.6992-2.3984-3zm-65.402-8.5h45.699c3.3008 0 6 2.6992 6 6v22.199h-0.10156c0 5.1992-4.1992 9.3984-9.3984 9.3984l-38.699 0.003906c-5.1992 0-9.3984-4.1992-9.3984-9.3984h-0.10156v-22.203c0-3.3008 2.6992-6 6-6zm51.602 54.699c0 3.3008-2.6992 6-6 6h-45.602c-3.3008 0-6-2.6992-6-6v-17c2.3984 2.5 5.8008 4 9.5 4h38.602c3.6992 0 7.1016-1.5 9.5-4zm-46.699 19.301h-1c-3.3984 0-6.1992-2.8008-6.1992-6.1992l-0.003906-1.3008c0.80078 0.19922 1.5 0.19922 2.3008 0.19922h11.102v1c0 3.5-2.8008 6.3008-6.1992 6.3008zm36.898 0h-1c-3.3984 0-6.1992-2.8008-6.1992-6.1992v-1h11.102c0.80078 0 1.6016-0.10156 2.3008-0.19922v1.3008c-0.003906 3.2969-2.8047 6.0977-6.2031 6.0977z"/>
</svg>
