<?xml version="1.0" encoding="UTF-8"?>
<svg fill="#6A8777" width="100pt" height="100pt" version="1.1" viewBox="0 0 100 100" xmlns="http://www.w3.org/2000/svg">
 <g>
  <path d="m48.867 20.188c0.97266 0 1.7617-0.78906 1.7617-1.7617v-9.3203c0-0.97266-0.78906-1.7656-1.7617-1.7656-0.97266 0-1.7617 0.78906-1.7617 1.7656v9.3203c0 0.97266 0.78906 1.7617 1.7617 1.7617z"/>
  <path d="m40.918 21.215c0.34375 0.91016 1.3633 1.3711 2.2734 1.0234 0.91016-0.34375 1.3711-1.3633 1.0234-2.2734l-3.2734-8.6406c-0.34375-0.91016-1.3633-1.3672-2.2734-1.0234-0.91016 0.34375-1.3711 1.3633-1.0234 2.2734z"/>
  <path d="m54.309 22.242c0.91016 0.34375 1.9297-0.11328 2.2734-1.0234l3.2695-8.6406c0.34375-0.91016-0.11328-1.9297-1.0234-2.2734s-1.9297 0.11328-2.2734 1.0234l-3.2734 8.6406c-0.34375 0.91016 0.11328 1.9258 1.0273 2.2734z"/>
  <path d="m86.484 81.57c-0.36719-0.90234-1.3945-1.3359-2.2969-0.96875l-2.7578 1.1211-7.1211-17.516c1.418-0.82812 2.5859-1.957 3.4453-3.2656 1.1289-1.7109 1.7383-3.7305 1.7383-5.8086 0-1.3438-0.25781-2.7148-0.79297-4.0312l-11.105-27.324c-0.36719-0.90234-1.3945-1.3359-2.2969-0.96875l-15.52 6.3086-15.516-6.3086c-0.90234-0.36719-1.9297 0.066406-2.2969 0.96875l-11.109 27.324c-0.53516 1.3164-0.79297 2.6875-0.79297 4.0312 0 2.0781 0.60938 4.0977 1.7383 5.8086 0.85938 1.3086 2.0312 2.4375 3.4453 3.2695l-7.1211 17.516-2.7578-1.1211c-0.90234-0.36719-1.9297 0.066406-2.2969 0.96875-0.36719 0.90234 0.066407 1.9297 0.96875 2.2969l8.5586 3.4805c0.90234 0.36719 1.9297-0.066406 2.2969-0.96875 0.36719-0.90234-0.066406-1.9297-0.96875-2.2969l-2.5352-1.0312 7.1484-17.586c0.67969 0.13672 1.3594 0.19922 2.0352 0.19922 2.0938 0 4.1211-0.63281 5.8359-1.7734 1.7148-1.1445 3.1172-2.8086 3.9492-4.8594l9.4141-23.156 9.4141 23.156c0.83203 2.0508 2.2344 3.7148 3.9492 4.8594 1.7148 1.1445 3.7422 1.7734 5.8359 1.7734 0.67578 0 1.3555-0.066407 2.0352-0.20312l7.1484 17.586-2.5352 1.0312c-0.90234 0.36719-1.3359 1.3945-0.96875 2.2969 0.36719 0.90234 1.3945 1.3359 2.2969 0.96875l8.5586-3.4805c0.91016-0.36328 1.3438-1.3906 0.97656-2.2969zm-49.387-23.82c-0.56641 1.3867-1.5 2.4688-2.6406 3.2305-1.1445 0.76562-2.4922 1.1719-3.8789 1.1719-0.87109 0-1.7617-0.17188-2.6328-0.52344-1.3711-0.55859-2.4492-1.4844-3.1992-2.6211-0.74609-1.1367-1.1562-2.4844-1.1562-3.8711 0-0.89844 0.17188-1.7656 0.53125-2.6602l4.6055-11.289h15.117zm8.1836-20.094h-15.117l4.4023-10.875 12.977 5.2969zm6.7344-5.5977l12.977-5.2539 4.4023 10.852-15.121 0.003906zm19.594 29.562c-0.87109 0.35547-1.7617 0.51953-2.6328 0.51953-1.3828 0-2.7344-0.41797-3.8789-1.1836-1.1445-0.76562-2.0781-1.8203-2.6406-3.2109l-6.7539-16.562h15.117l4.6055 11.289c0.36328 0.89453 0.53125 1.7852 0.53125 2.6836 0 1.3867-0.40625 2.7227-1.1562 3.8594-0.73828 1.1367-1.8164 2.0469-3.1914 2.6055z"/>
 </g>
</svg>
