<?xml version="1.0" encoding="UTF-8"?>
<svg fill="#6A8777" width="100pt" height="100pt" version="1.1" viewBox="0 0 100 100" xmlns="http://www.w3.org/2000/svg">
 <g>
  <path d="m76 7.7695h-52c-6.0742 0-11 4.9258-11 11v62.461c0 6.0742 4.9258 11 11 11h52c6.0742 0 11-4.9258 11-11v-62.461c0-6.0742-4.9258-11-11-11zm5 73.461c0 1.3242-0.52734 2.5977-1.4648 3.5352s-2.2109 1.4648-3.5352 1.4648h-52c-2.7617 0-5-2.2383-5-5v-62.461c0-2.7617 2.2383-5 5-5h52c1.3242 0 2.5977 0.52734 3.5352 1.4648s1.4648 2.2109 1.4648 3.5352z"/>
  <path d="m32.352 47.5h-4.9531c-1.6562 0-3 1.3438-3 3s1.3438 3 3 3h4.9531c1.6562 0 3-1.3438 3-3s-1.3438-3-3-3z"/>
  <path d="m72.602 47.5h-29.312c-1.6562 0-3 1.3438-3 3s1.3438 3 3 3h29.312c1.6562 0 3-1.3438 3-3s-1.3438-3-3-3z"/>
  <path d="m32.352 29.5h-4.9531c-1.6562 0-3 1.3438-3 3s1.3438 3 3 3h4.9531c1.6562 0 3-1.3438 3-3s-1.3438-3-3-3z"/>
  <path d="m72.602 29.5h-29.312c-1.6562 0-3 1.3438-3 3s1.3438 3 3 3h29.312c1.6562 0 3-1.3438 3-3s-1.3438-3-3-3z"/>
  <path d="m32.352 65.5h-4.9531c-1.6562 0-3 1.3438-3 3s1.3438 3 3 3h4.9531c1.6562 0 3-1.3438 3-3s-1.3438-3-3-3z"/>
  <path d="m72.602 65.5h-29.312c-1.6562 0-3 1.3438-3 3s1.3438 3 3 3h29.312c1.6562 0 3-1.3438 3-3s-1.3438-3-3-3z"/>
 </g>
</svg>
